<svg id="Layer_2" data-name="Layer 2" xmlns="http://www.w3.org/2000/svg" viewBox="0 0 1161.5 472.02"><g id="Group_48" data-name="Group 48"><path d="M34.36,469.18H1127.61l32.32-45.72.2-.3V95.09l-32.62-46H500.26L468.45,4h-434L2.05,50l-.63,68.12" style="fill:#fff;stroke:#000;stroke-miterlimit:10;stroke-width:3px"/></g><polygon points="1160.83 94.57 1160.83 118.64 1.89 118.64 1.89 49.45 35.46 2.61 468.64 3.43 500.47 48.55 1128.19 48.55 1160.83 94.57" style="fill:#0d102b"/><rect x="1.42" y="118.09" width="1157.27" height="5.38" style="fill:#bcc532"/><rect x="105.32" y="20.84" width="287.96" height="56.15" style="fill:none"/><path d="M127.4,70.13,127,56.84V36.57h4.27V77h-4.93L118,56.06l-4.76-12.58.36,13.24V77h-4.15V36.57h4.94Q124,60.87,127.4,70.13Z" style="fill:#bcc532"/><path d="M139.55,36.57h17.51v3.79H143.83V54.73h11.55v3.79H143.83V73.2h13.23V77H139.55Z" style="fill:#bcc532"/><path d="M190.57,36.57h4.09L188,77h-5.11q-4-23.34-4.42-26.74c-.3-2.26-.58-4.6-.82-7q-.6,6.56-1.8,13.54L172.4,77h-5.23l-6.62-40.42h4.09l4,24.12,1.44,10.71q.66-5.41,1.51-10.77l3.85-24.06h4.39l3.85,24.12,1.5,10.59q.78-6.32,1.45-10.59Z" style="fill:#bcc532"/><path d="M228.35,77l-2.47-11.31H215.05L212.59,77h-4.28l9.15-40.42h6L232.62,77ZM215.83,62H225l-4.63-21.23Z" style="fill:#bcc532"/><path d="M248,60.75h-6V77h-4.27V36.57h9.81c3.21,0,5.63.81,7.28,2.43a8.94,8.94,0,0,1,2.46,6.65v6q0,6.49-5.17,8.42l6.44,17h-4.69Zm-6-3.73h5.36c3.77,0,5.65-1.83,5.65-5.47V45.83q0-5.47-5.65-5.47h-5.36Z" style="fill:#bcc532"/><path d="M275.51,60.75h-5.95V77h-4.28V36.57h9.81c3.21,0,5.63.81,7.28,2.43a9,9,0,0,1,2.47,6.65v6q0,6.49-5.18,8.42l6.44,17h-4.69ZM269.56,57h5.35c3.77,0,5.65-1.83,5.65-5.47V45.83q0-5.47-5.65-5.47h-5.35Z" style="fill:#bcc532"/><path d="M292.78,36.57h4.27V77h-4.27Z" style="fill:#bcc532"/><path d="M321.23,36.57h4.45L316.84,77h-6L302,36.57h4.39l4.27,20.09q2.3,12.09,3.19,16.18.48-2.4,1.63-8.3Q316.72,58.11,321.23,36.57Z" style="fill:#bcc532"/><path d="M347.46,77,345,65.68H334.17L331.7,77h-4.27l9.14-40.42h6L351.73,77ZM335,62h9.2l-4.63-21.23Z" style="fill:#bcc532"/><path d="M356.9,36.57h4.28V73.26h12.27V77H356.9Z" style="fill:#bcc532"/><path d="M375.43,44.75a7.76,7.76,0,0,1,2.65-6.23c1.77-1.5,4.24-2.26,7.43-2.26a27.69,27.69,0,0,1,8.09,1v4.09A22.39,22.39,0,0,0,386,40.23q-6.19,0-6.19,4.7v2.89a5.84,5.84,0,0,0,.81,3.3,7.79,7.79,0,0,0,2.73,2.29l7,3.91a8.58,8.58,0,0,1,4.88,8v3.25A7.84,7.84,0,0,1,392.34,75c-1.89,1.52-4.6,2.28-8.15,2.28a24.27,24.27,0,0,1-8.46-1.2V72a23.07,23.07,0,0,0,8.07,1.32q7.09,0,7.09-5V65.8a5.87,5.87,0,0,0-.72-3.13,6.88,6.88,0,0,0-2.58-2.16l-6.92-3.79q-5.24-2.84-5.24-8.42Z" style="fill:#bcc532"/><rect id="Rectangle_135" data-name="Rectangle 135" x="878.88" y="68.72" width="13.61" height="28.7" style="fill:#e3203d"/><rect id="Rectangle_136" data-name="Rectangle 136" x="857.4" y="68.72" width="6.8" height="28.7" style="fill:#e3203d"/><rect id="Rectangle_137" data-name="Rectangle 137" x="829.1" y="68.72" width="13.61" height="28.7" style="fill:#e3203d"/><rect id="Rectangle_138" data-name="Rectangle 138" x="881.11" y="67.2" width="13.61" height="28.7" style="fill:#26dde1"/><rect id="Rectangle_139" data-name="Rectangle 139" x="859.62" y="67.2" width="6.8" height="28.7" style="fill:#26dde1"/><rect id="Rectangle_140" data-name="Rectangle 140" x="831.33" y="67.2" width="13.61" height="28.7" style="fill:#26dde1"/><rect id="Rectangle_141" data-name="Rectangle 141" x="879.78" y="67.81" width="13.61" height="28.7" style="fill:#fff"/><rect id="Rectangle_142" data-name="Rectangle 142" x="858.29" y="67.81" width="6.8" height="28.7" style="fill:#fff"/><rect id="Rectangle_143" data-name="Rectangle 143" x="830" y="67.81" width="13.61" height="28.7" style="fill:#fff"/><path d="M1.42,118V423.55l32.29,45.72H1126.1" style="fill:#fff;stroke:#000;stroke-miterlimit:10;stroke-width:3px"/><rect x="2.93" y="118.25" width="17.98" height="5.22" style="fill:#bcc532"/><g id="BATTLETECH"><g style="isolation:isolate"><path d="M930.88,84.92a4.82,4.82,0,0,0,.66,2.38c.75,1.14,2.06,1.71,3.94,1.71a6.73,6.73,0,0,0,2.3-.37,2.63,2.63,0,0,0,2-2.6,2.28,2.28,0,0,0-.85-2,8.37,8.37,0,0,0-2.7-1L934,82.49a10.29,10.29,0,0,1-3.13-1.14,3.63,3.63,0,0,1-1.59-3.22,5,5,0,0,1,1.56-3.81,6.18,6.18,0,0,1,4.43-1.49,7.54,7.54,0,0,1,4.47,1.31,4.76,4.76,0,0,1,1.84,4.18h-2.19a4.41,4.41,0,0,0-.72-2.13,4.11,4.11,0,0,0-3.47-1.34,3.94,3.94,0,0,0-2.84.86,2.77,2.77,0,0,0-.87,2,2,2,0,0,0,1,1.85,14.64,14.64,0,0,0,3,.94l2.34.55a7.24,7.24,0,0,1,2.61,1.09,4.12,4.12,0,0,1,1.59,3.5,4.41,4.41,0,0,1-2,4.09A8.93,8.93,0,0,1,935.32,91a6.91,6.91,0,0,1-4.9-1.64,5.62,5.62,0,0,1-1.74-4.42Z" style="fill:#e3203d"/><path d="M945.42,73.26h2.35v7.12h8.85V73.26H959V90.48h-2.36v-8h-8.85v8h-2.35Z" style="fill:#e3203d"/><path d="M967.7,73.26h2.63l6.25,17.22H974l-1.74-5.16h-6.81l-1.86,5.16h-2.39Zm3.83,10.16-2.61-7.6-2.78,7.6Z" style="fill:#e3203d"/><path d="M978.81,73.26h6.88a6.45,6.45,0,0,1,5.43,2.52,9.39,9.39,0,0,1,1.72,5.83,11.88,11.88,0,0,1-1,5,6.29,6.29,0,0,1-6.17,3.91h-6.85Zm6.42,15.23a6,6,0,0,0,1.9-.25,4.18,4.18,0,0,0,2.18-1.76,7.27,7.27,0,0,0,1-2.67,9.9,9.9,0,0,0,.17-1.8,8.53,8.53,0,0,0-1.24-5,4.54,4.54,0,0,0-4-1.77h-4.05V88.49Z" style="fill:#e3203d"/><path d="M1010.21,75.73a9.48,9.48,0,0,1,1.71,5.84A10.25,10.25,0,0,1,1010,88a8.71,8.71,0,0,1-12.8.38,9.93,9.93,0,0,1-2-6.4,10.17,10.17,0,0,1,1.74-6,7.51,7.51,0,0,1,6.58-3.18C1006.5,72.8,1008.75,73.77,1010.21,75.73Zm-2.05,11a9.51,9.51,0,0,0,1.37-5.09,7.27,7.27,0,0,0-1.59-4.89,5.41,5.41,0,0,0-4.34-1.85,5.64,5.64,0,0,0-4.36,1.84,7.74,7.74,0,0,0-1.68,5.41A7.92,7.92,0,0,0,999,86.94a5.46,5.46,0,0,0,4.7,2A4.87,4.87,0,0,0,1008.16,86.7Z" style="fill:#e3203d"/><path d="M1015.84,73.26l3.25,14,3.89-14h2.52l3.9,14,3.25-14h2.55l-4.52,17.22h-2.45l-4-14.27-4,14.27h-2.45l-4.5-17.22Z" style="fill:#e3203d"/><path d="M1037.63,73.26h7.83a7.74,7.74,0,0,1,3.19.58,4.08,4.08,0,0,1,2.38,4.07,4.54,4.54,0,0,1-.64,2.53A4.68,4.68,0,0,1,1048.6,82a3.48,3.48,0,0,1,1.52,1.08,3.83,3.83,0,0,1,.57,2.16l.08,2.31a7.36,7.36,0,0,0,.16,1.47,1.46,1.46,0,0,0,.75,1v.39h-2.85a1.9,1.9,0,0,1-.19-.57,10.19,10.19,0,0,1-.12-1.36l-.14-2.88a2.43,2.43,0,0,0-1.22-2.26,4.93,4.93,0,0,0-2-.31H1040v7.38h-2.34Zm7.58,7.89a4.35,4.35,0,0,0,2.52-.65,2.71,2.71,0,0,0,.93-2.37,2.55,2.55,0,0,0-1.3-2.51,4.19,4.19,0,0,0-1.86-.35H1040v5.88Z" style="fill:#e3203d"/><path d="M1057.2,73.26V83.91a6.22,6.22,0,0,0,.71,3.11,3.74,3.74,0,0,0,3.55,1.88q3,0,4.06-2a6.33,6.33,0,0,0,.58-3V73.26h2.35v9.67a11.21,11.21,0,0,1-.85,4.89q-1.59,3.12-5.95,3.12t-5.94-3.12a11,11,0,0,1-.86-4.89V73.26Z" style="fill:#e3203d"/><path d="M1072,73.26h2.74l8.59,13.91V73.26h2.23V90.48H1083l-8.72-13.89V90.48H1072Z" style="fill:#e3203d"/></g></g><g id="BATTLETECH-2" data-name="BATTLETECH"><g style="isolation:isolate"><path d="M931.5,84.24a4.82,4.82,0,0,0,.67,2.38c.74,1.14,2.05,1.71,3.94,1.71a6.72,6.72,0,0,0,2.3-.38,2.63,2.63,0,0,0,2-2.6,2.29,2.29,0,0,0-.85-2,8.56,8.56,0,0,0-2.7-1l-2.26-.53a9.85,9.85,0,0,1-3.14-1.14,3.62,3.62,0,0,1-1.59-3.22,5,5,0,0,1,1.57-3.81,6.15,6.15,0,0,1,4.42-1.48,7.55,7.55,0,0,1,4.48,1.3,4.79,4.79,0,0,1,1.84,4.18H940a4.59,4.59,0,0,0-.72-2.12,4.08,4.08,0,0,0-3.47-1.35A3.92,3.92,0,0,0,933,75a2.79,2.79,0,0,0-.86,2,2,2,0,0,0,1,1.86,14.63,14.63,0,0,0,3,.93l2.34.55a7.09,7.09,0,0,1,2.61,1.09A4.15,4.15,0,0,1,942.69,85a4.4,4.4,0,0,1-2,4.09A8.89,8.89,0,0,1,936,90.3a6.94,6.94,0,0,1-4.9-1.64,5.63,5.63,0,0,1-1.74-4.42Z" style="fill:#26dde1"/><path d="M946,72.58h2.36v7.11h8.85V72.58h2.35V89.79h-2.35V81.74H948.4v8.05H946Z" style="fill:#26dde1"/><path d="M968.32,72.58H971l6.24,17.21h-2.55l-1.75-5.15h-6.81l-1.86,5.15h-2.39Zm3.83,10.16-2.61-7.61-2.78,7.61Z" style="fill:#26dde1"/><path d="M979.43,72.58h6.88a6.46,6.46,0,0,1,5.44,2.52,9.36,9.36,0,0,1,1.72,5.82,11.73,11.73,0,0,1-1,5,6.26,6.26,0,0,1-6.16,3.91h-6.86Zm6.42,15.22a6.4,6.4,0,0,0,1.91-.24,4.25,4.25,0,0,0,2.17-1.76,7.41,7.41,0,0,0,1-2.67,10.9,10.9,0,0,0,.17-1.81,8.63,8.63,0,0,0-1.24-5,4.56,4.56,0,0,0-4-1.77h-4V87.8Z" style="fill:#26dde1"/><path d="M1010.84,75a9.49,9.49,0,0,1,1.71,5.85,10.22,10.22,0,0,1-2,6.41,7.75,7.75,0,0,1-6.55,3,7.85,7.85,0,0,1-6.25-2.63,9.92,9.92,0,0,1-2-6.4,10.13,10.13,0,0,1,1.73-6,7.51,7.51,0,0,1,6.59-3.19Q1008.65,72.11,1010.84,75Zm-2.06,11a9.39,9.39,0,0,0,1.38-5.08,7.23,7.23,0,0,0-1.59-4.89,5.41,5.41,0,0,0-4.34-1.86A5.66,5.66,0,0,0,999.87,76a7.71,7.71,0,0,0-1.69,5.41,7.89,7.89,0,0,0,1.45,4.83c1,1.31,2.53,2,4.69,2A4.84,4.84,0,0,0,1008.78,86Z" style="fill:#26dde1"/><path d="M1016.47,72.58l3.24,14,3.89-14h2.52l3.91,14,3.24-14h2.56l-4.53,17.21h-2.45l-4-14.27-4,14.27h-2.45l-4.5-17.21Z" style="fill:#26dde1"/><path d="M1038.26,72.58h7.82a7.72,7.72,0,0,1,3.19.57,4.08,4.08,0,0,1,2.38,4.07,4.24,4.24,0,0,1-2.42,4.11,3.65,3.65,0,0,1,1.52,1.08,4,4,0,0,1,.56,2.17l.09,2.31a6.65,6.65,0,0,0,.16,1.46,1.45,1.45,0,0,0,.75,1.06v.38h-2.86a2.11,2.11,0,0,1-.19-.57,13.14,13.14,0,0,1-.11-1.36L1049,85a2.4,2.4,0,0,0-1.21-2.26,5,5,0,0,0-2-.32h-5.16v7.38h-2.33Zm7.57,7.89a4.29,4.29,0,0,0,2.53-.66,2.71,2.71,0,0,0,.93-2.37,2.58,2.58,0,0,0-1.3-2.51,4.25,4.25,0,0,0-1.86-.35h-5.54v5.89Z" style="fill:#26dde1"/><path d="M1057.83,72.58V83.22a6.26,6.26,0,0,0,.71,3.12,3.72,3.72,0,0,0,3.54,1.87c2,0,3.35-.67,4.06-2a6.33,6.33,0,0,0,.58-3V72.58h2.36v9.67a11.17,11.17,0,0,1-.86,4.88q-1.58,3.12-6,3.12c-2.92,0-4.89-1-5.94-3.12a11.17,11.17,0,0,1-.86-4.88V72.58Z" style="fill:#26dde1"/><path d="M1072.64,72.58h2.75L1084,86.49V72.58h2.23V89.79h-2.62l-8.71-13.89V89.79h-2.23Z" style="fill:#26dde1"/></g></g><g id="BATTLETECH-3" data-name="BATTLETECH" style="isolation:isolate"><g style="isolation:isolate"><path d="M931.1,84.52a4.82,4.82,0,0,0,.66,2.38c.75,1.14,2.06,1.71,3.94,1.71a6.73,6.73,0,0,0,2.3-.37,2.64,2.64,0,0,0,2-2.6,2.28,2.28,0,0,0-.85-2,8.37,8.37,0,0,0-2.7-1l-2.26-.53A10.06,10.06,0,0,1,931.07,81a3.64,3.64,0,0,1-1.59-3.22A5,5,0,0,1,931,73.92a6.13,6.13,0,0,1,4.42-1.49,7.55,7.55,0,0,1,4.48,1.3,4.78,4.78,0,0,1,1.84,4.18h-2.19a4.37,4.37,0,0,0-.72-2.12,4.08,4.08,0,0,0-3.47-1.35,3.88,3.88,0,0,0-2.84.87,2.77,2.77,0,0,0-.87,2,2,2,0,0,0,1,1.85,15,15,0,0,0,3,.94l2.34.55a7.07,7.07,0,0,1,2.61,1.09,4.12,4.12,0,0,1,1.59,3.5,4.41,4.41,0,0,1-2,4.09,8.93,8.93,0,0,1-4.72,1.23,7,7,0,0,1-4.9-1.64,5.63,5.63,0,0,1-1.74-4.42Z" style="fill:#fff"/><path d="M945.64,72.86H948V80h8.85V72.86h2.36V90.08h-2.36V82H948v8h-2.35Z" style="fill:#fff"/><path d="M967.92,72.86h2.63l6.25,17.22h-2.56l-1.74-5.16h-6.81l-1.86,5.16h-2.39ZM971.75,83l-2.62-7.6L966.36,83Z" style="fill:#fff"/><path d="M979,72.86h6.88a6.45,6.45,0,0,1,5.43,2.52,9.39,9.39,0,0,1,1.72,5.83,11.84,11.84,0,0,1-1,5,6.29,6.29,0,0,1-6.17,3.92H979Zm6.42,15.22a6.33,6.33,0,0,0,1.9-.24,4.23,4.23,0,0,0,2.18-1.76,7.34,7.34,0,0,0,1-2.67,9.92,9.92,0,0,0,.17-1.81,8.52,8.52,0,0,0-1.24-5,4.54,4.54,0,0,0-4-1.77h-4V88.08Z" style="fill:#fff"/><path d="M1010.43,75.32a9.53,9.53,0,0,1,1.71,5.85,10.25,10.25,0,0,1-1.95,6.41,8.71,8.71,0,0,1-12.8.38,9.93,9.93,0,0,1-2-6.4,10.17,10.17,0,0,1,1.74-6,7.52,7.52,0,0,1,6.58-3.19Q1008.24,72.39,1010.43,75.32Zm-2,11a9.51,9.51,0,0,0,1.37-5.09,7.27,7.27,0,0,0-1.59-4.89,5.41,5.41,0,0,0-4.34-1.85,5.67,5.67,0,0,0-4.36,1.83,7.79,7.79,0,0,0-1.68,5.42,7.94,7.94,0,0,0,1.44,4.82,5.46,5.46,0,0,0,4.7,2A4.87,4.87,0,0,0,1008.38,86.3Z" style="fill:#fff"/><path d="M1016.06,72.86l3.25,14,3.89-14h2.52l3.9,14,3.25-14h2.55l-4.52,17.22h-2.45l-4-14.28-4,14.28H1018l-4.5-17.22Z" style="fill:#fff"/><path d="M1037.85,72.86h7.83a7.58,7.58,0,0,1,3.19.58,4.08,4.08,0,0,1,2.38,4.06,4.52,4.52,0,0,1-.64,2.53,4.62,4.62,0,0,1-1.79,1.59,3.55,3.55,0,0,1,1.52,1.07,3.9,3.9,0,0,1,.57,2.17l.08,2.31a7.36,7.36,0,0,0,.16,1.47,1.45,1.45,0,0,0,.75,1v.39H1049a2.21,2.21,0,0,1-.18-.58,9.83,9.83,0,0,1-.12-1.36l-.14-2.87a2.42,2.42,0,0,0-1.22-2.26,4.9,4.9,0,0,0-2-.32h-5.15v7.39h-2.34Zm7.58,7.89a4.28,4.28,0,0,0,2.52-.66,2.69,2.69,0,0,0,.93-2.36,2.55,2.55,0,0,0-1.3-2.51,4.06,4.06,0,0,0-1.86-.35h-5.53v5.88Z" style="fill:#fff"/><path d="M1057.42,72.86V83.5a6.26,6.26,0,0,0,.71,3.12,3.73,3.73,0,0,0,3.55,1.87q3,0,4.06-2a6.53,6.53,0,0,0,.58-3V72.86h2.35v9.67a11.21,11.21,0,0,1-.85,4.89q-1.59,3.1-6,3.11t-5.94-3.11a11,11,0,0,1-.86-4.89V72.86Z" style="fill:#fff"/><path d="M1072.24,72.86H1075l8.59,13.91V72.86h2.22V90.08h-2.62l-8.71-13.9v13.9h-2.22Z" style="fill:#fff"/></g></g></svg>