<?xml version="1.0" encoding="utf-8"?>
<!-- Generator: Adobe Illustrator 25.1.0, SVG Export Plug-In . SVG Version: 6.00 Build 0)  -->
<svg version="1.1" id="Layer_2_1_" xmlns="http://www.w3.org/2000/svg" xmlns:xlink="http://www.w3.org/1999/xlink" x="0px" y="0px"
	 viewBox="0 0 1161.5 508.9" style="enable-background:new 0 0 1161.5 508.9;" xml:space="preserve">
<style type="text/css">
	.st0{fill:#BCC532;}
	.st1{fill:#FFFFFF;stroke:#000000;stroke-width:3;stroke-miterlimit:10;}
	.st2{clip-path:url(#SVGID_2_);fill:url(#SVGID_3_);}
	.st3{fill:#0B0B31;}
	.st4{fill:none;}
	.st5{fill:#D73148;}
	.st6{fill:#67DFE4;}
	.st7{enable-background:new    ;}
	.st8{fill:#FFFFFF;}
</style>
<g>
	<g id="Group_48_1_">
		<g>
			<path class="st0" d="M1129.1,53.9H504l-31.8-45H39.7L7.4,54.8v408.8l32,45.3h432.1l25.4-36h632.2l32.2-45.6l0.2-0.3V99.8
				L1129.1,53.9z M1160.1,426.6l-31.8,45H496.1l-25.4,36H40.1l-25.4-36l-5.9-8.4v-408l31.7-45h431.1l31.8,45h625.1l31.8,45v326.4
				H1160.1z"/>
			<polygon class="st0" points="1160.1,100.2 1160.1,426.6 1128.4,471.6 496.1,471.6 470.7,507.5 40.1,507.5 14.7,471.6 8.8,463.2 
				8.8,55.2 40.4,10.2 471.5,10.2 503.3,55.2 1128.4,55.2 			"/>
		</g>
	</g>
</g>
<g>
	<g id="Group_48">
		<g>
			<path class="st1" d="M1123.2,47H498.1L466.4,2H33.9L1.6,47.9v408.8l32,45.3h432.1l25.4-36h632.2l32.2-45.6l0.2-0.3V92.9
				L1123.2,47z"/>
		</g>
	</g>
</g>
<g>
	<g>
		<g>
			<g>
				<defs>
					<polygon id="SVGID_1_" points="1122.3,45 497.3,45 465.5,0 33,0 0.7,45.9 0.7,454.7 32.7,500 464.8,500 490.2,464 1122.4,464 
						1154.6,418.4 1154.8,418.1 1154.8,90.9 					"/>
				</defs>
				<clipPath id="SVGID_2_">
					<use xlink:href="#SVGID_1_"  style="overflow:visible;"/>
				</clipPath>
				
					<radialGradient id="SVGID_3_" cx="996.7" cy="294.1" r="264.6297" gradientTransform="matrix(1 0 0 -1 0 559)" gradientUnits="userSpaceOnUse">
					<stop  offset="0" style="stop-color:#02E3E7"/>
					<stop  offset="9.052799e-02" style="stop-color:#0FE4E8;stop-opacity:0.9095"/>
					<stop  offset="0.2587" style="stop-color:#32E8EC;stop-opacity:0.7413"/>
					<stop  offset="0.4862" style="stop-color:#6AEFF1;stop-opacity:0.5138"/>
					<stop  offset="0.7609" style="stop-color:#B7F7F8;stop-opacity:0.2391"/>
					<stop  offset="1" style="stop-color:#FFFFFF;stop-opacity:0"/>
				</radialGradient>
				<ellipse class="st2" cx="996.7" cy="264.9" rx="274.2" ry="254.7"/>
			</g>
		</g>
	</g>
</g>
<polygon class="st3" points="461.8,98.4 40.1,98.4 8.8,54.8 40.1,10.2 461.8,10.2 491.8,54.3 "/>
<rect x="106.7" y="21.3" class="st4" width="287.2" height="56"/>
<g>
	<g id="Group_52_1_">
		<g id="Group_49_1_">
			<rect id="Rectangle_32_1_" x="530" y="56.7" class="st5" width="44.6" height="17.7"/>
			<rect id="Rectangle_33_1_" x="587.2" y="56.7" class="st5" width="18.7" height="17.7"/>
			<rect id="Rectangle_34_1_" x="700.2" y="56.7" class="st5" width="44.6" height="17.7"/>
			<rect id="Rectangle_35_1_" x="748.2" y="56.7" class="st5" width="7.4" height="17.7"/>
			<rect id="Rectangle_36_1_" x="872.5" y="56.7" class="st5" width="18.7" height="17.7"/>
		</g>
		<g id="Group_50_1_">
			<rect id="Rectangle_37_1_" x="527.1" y="53.8" class="st6" width="44.6" height="17.7"/>
			<rect id="Rectangle_38_1_" x="584.3" y="53.8" class="st6" width="18.7" height="17.7"/>
			<rect id="Rectangle_39_1_" x="697.4" y="53.8" class="st6" width="44.6" height="17.7"/>
			<rect id="Rectangle_40_1_" x="745.3" y="53.8" class="st6" width="7.4" height="17.7"/>
			<rect id="Rectangle_41_1_" x="869.5" y="53.8" class="st6" width="18.7" height="17.7"/>
		</g>
		<g id="Group_51_1_">
			<rect id="Rectangle_42_1_" x="528.6" y="55.2" width="44.6" height="17.7"/>
			<rect id="Rectangle_43_1_" x="585.8" y="55.2" width="18.7" height="17.7"/>
			<rect id="Rectangle_44_1_" x="698.9" y="55.2" width="44.6" height="17.7"/>
			<rect id="Rectangle_45_1_" x="746.8" y="55.2" width="7.4" height="17.7"/>
			<rect id="Rectangle_46_1_" x="871.1" y="55.2" width="18.7" height="17.7"/>
		</g>
	</g>
	<rect id="Rectangle_47_1_" x="915.1" y="56.6" class="st5" width="44.6" height="17.7"/>
	<rect id="Rectangle_48_1_" x="963.2" y="56.6" class="st5" width="7.4" height="17.7"/>
	<rect id="Rectangle_49_1_" x="1089.2" y="56.6" class="st5" width="18.7" height="17.7"/>
	<rect id="Rectangle_50_1_" x="912.3" y="53.7" class="st6" width="44.6" height="17.7"/>
	<rect id="Rectangle_51_1_" x="960.2" y="53.7" class="st6" width="7.4" height="17.7"/>
	<rect id="Rectangle_52_1_" x="1086.2" y="53.7" class="st6" width="18.7" height="17.7"/>
	<rect id="Rectangle_53_1_" x="913.7" y="55.2" width="44.6" height="17.7"/>
	<rect id="Rectangle_54_1_" x="961.7" y="55.2" width="7.4" height="17.7"/>
	<rect id="Rectangle_55_1_" x="1087.8" y="55.2" width="18.7" height="17.7"/>
</g>
<g class="st7">
	<path class="st8" d="M149,44.2c0-2.1,0.7-3.8,2.1-5c1.4-1.2,3.4-1.8,5.9-1.8c2.5,0,4.7,0.3,6.5,0.8v3.3c-1.7-0.6-3.7-0.9-6.1-0.9
		c-3.3,0-4.9,1.2-4.9,3.7v2.3c0,1.1,0.2,2,0.6,2.6c0.4,0.6,1.2,1.2,2.2,1.8l5.6,3.1c2.6,1.4,3.9,3.5,3.9,6.4v2.6
		c0,2.2-0.8,3.9-2.3,5.1c-1.5,1.2-3.7,1.8-6.5,1.8s-5.1-0.3-6.7-1v-3.3c1.9,0.7,4,1.1,6.4,1.1c3.8,0,5.7-1.3,5.7-4v-2
		c0-1.1-0.2-1.9-0.6-2.5c-0.4-0.6-1.1-1.2-2.1-1.7l-5.5-3c-2.8-1.5-4.2-3.7-4.2-6.7V44.2z"/>
	<path class="st8" d="M183.3,37.7h3.5v32.3h-3.5V55.6H173v14.3h-3.4V37.7h3.4v14.9h10.3V37.7z"/>
	<path class="st8" d="M206.9,69.9l-2-9h-8.6l-2,9h-3.4l7.3-32.3h4.8l7.3,32.3H206.9z M196.9,57.9h7.3L200.5,41L196.9,57.9z"/>
	<path class="st8" d="M214.4,37.7h8.4c2.6,0,4.5,0.7,5.8,2c1.3,1.3,2,3.1,2,5.3v17.7c0,2.3-0.6,4.1-1.9,5.4c-1.3,1.3-3.2,2-5.8,2
		h-8.5V37.7z M227.2,44.9c0-2.9-1.5-4.3-4.6-4.3h-4.8v26.3h4.8c3,0,4.6-1.5,4.6-4.4V44.9z"/>
	<path class="st8" d="M236.3,44.8c0-2.3,0.7-4.1,2.1-5.5c1.4-1.4,3.4-2.1,6.1-2.1s4.7,0.7,6.1,2.1c1.4,1.4,2.1,3.2,2.1,5.5v18
		c0,2.3-0.7,4.1-2.1,5.5c-1.4,1.4-3.4,2.1-6.1,2.1s-4.7-0.7-6.1-2.1c-1.4-1.4-2-3.2-2-5.5V44.8z M249.1,44.9c0-3-1.6-4.6-4.7-4.6
		s-4.7,1.5-4.7,4.6v17.9c0,3.1,1.6,4.6,4.7,4.6s4.7-1.5,4.7-4.6V44.9z"/>
	<path class="st8" d="M280.3,37.7h3.3l-5.3,32.3h-4.1c-2.1-12.4-3.3-19.5-3.5-21.3c-0.2-1.8-0.5-3.7-0.6-5.6
		c-0.3,3.5-0.8,7.1-1.4,10.8l-2.7,16.1h-4.2l-5.3-32.3h3.3l3.2,19.2l1.2,8.5c0.4-2.9,0.8-5.7,1.2-8.6l3.1-19.2h3.5l3.1,19.2l1.2,8.4
		c0.4-3.4,0.8-6.2,1.2-8.4L280.3,37.7z"/>
	<path class="st8" d="M296.1,56.9h-4.8v13h-3.4V37.7h7.8c2.6,0,4.5,0.6,5.8,1.9c1.3,1.3,2,3.1,2,5.3v4.8c0,3.5-1.4,5.7-4.1,6.7
		l5.1,13.5h-3.7L296.1,56.9z M291.3,54h4.3c3,0,4.5-1.5,4.5-4.4V45c0-2.9-1.5-4.4-4.5-4.4h-4.3V54z"/>
	<path class="st8" d="M322.4,37.7h3.4v25.2c0,2.3-0.7,4.1-2,5.5c-1.4,1.4-3.4,2.1-6.1,2.1s-4.7-0.7-6.1-2.1c-1.4-1.4-2-3.2-2-5.5
		V37.7h3.4v25.1c0,3.1,1.6,4.6,4.7,4.6c3.1,0,4.7-1.5,4.7-4.6V37.7z"/>
	<path class="st8" d="M346.5,64.4l-0.3-10.6V37.7h3.4v32.3h-3.9L339,53.2c-0.3-0.7-1.5-4-3.8-10l0.3,10.6v16.2h-3.3V37.7h3.9
		C341.2,50.6,344.7,59.5,346.5,64.4z"/>
</g>
</svg>
