<?xml version="1.0" encoding="utf-8"?>
<!-- Generator: Adobe Illustrator 25.1.0, SVG Export Plug-In . SVG Version: 6.00 Build 0)  -->
<svg version="1.1" id="Layer_2_1_" xmlns="http://www.w3.org/2000/svg" xmlns:xlink="http://www.w3.org/1999/xlink" x="0px" y="0px"
	 viewBox="0 0 1161.5 508.9" style="enable-background:new 0 0 1161.5 508.9;" xml:space="preserve">
<style type="text/css">
	.st0{fill:#BCC532;}
	.st1{fill:#FFFFFF;stroke:#000000;stroke-width:3;stroke-miterlimit:10;}
	.st2{fill:#0B0B31;}
	.st3{fill:none;}
	.st4{enable-background:new    ;}
	.st5{fill:#FFFFFF;}
	.st6{fill:#D73148;}
	.st7{fill:#67DFE4;}
</style>
<g>
	<g id="Group_48_1_">
		<g>
			<path class="st0" d="M1129.1,53.9H504l-31.8-45H39.7L7.4,54.8v408.8l32,45.3h432.1l25.4-36h632.2l32.2-45.6l0.2-0.3V99.8
				L1129.1,53.9z M1160.1,426.6l-31.8,45H496.1l-25.4,36H40.1l-25.4-36l-5.9-8.4v-408l31.7-45h431.1l31.8,45h625.1l31.8,45v326.4
				H1160.1z"/>
			<polygon class="st0" points="1160.1,100.2 1160.1,426.6 1128.4,471.6 496.1,471.6 470.7,507.5 40.1,507.5 14.7,471.6 8.8,463.2 
				8.8,55.2 40.4,10.2 471.5,10.2 503.3,55.2 1128.4,55.2 			"/>
		</g>
	</g>
</g>
<g>
	<g id="Group_48">
		<g>
			<path class="st1" d="M1123.2,47H498.1L466.4,2H33.9L1.6,47.9v408.8l32,45.3h432.1l25.4-36h632.2l32.2-45.6l0.2-0.3V92.9
				L1123.2,47z"/>
		</g>
	</g>
</g>
<polygon class="st2" points="461.8,98.4 40.1,98.4 8.8,54.8 40.1,10.2 461.8,10.2 491.8,54.3 "/>
<rect x="106.7" y="21.3" class="st3" width="287.2" height="56"/>
<g class="st4">
	<path class="st5" d="M63.1,35.9h15.6v3.5H67v13.9H78v3.5H67v16.1h-3.9V35.9z"/>
	<path class="st5" d="M83.5,35.9h16v3.5H87.4v13.1H98V56H87.4v13.4h12.1v3.5h-16V35.9z"/>
	<path class="st5" d="M120.8,72.9l-2.3-10.3h-9.9l-2.3,10.3h-3.9l8.4-37h5.5l8.4,37H120.8z M109.3,59.1h8.4l-4.2-19.4L109.3,59.1z"
		/>
	<path class="st5" d="M144.4,35.9v3.5h-7.1v33.5h-4V39.4h-7.1v-3.5H144.4z"/>
	<path class="st5" d="M163.1,35.9h3.9v28.8c0,2.6-0.8,4.7-2.3,6.3c-1.6,1.6-3.9,2.4-7,2.4s-5.4-0.8-7-2.4c-1.6-1.6-2.3-3.7-2.3-6.3
		V35.9h3.9v28.7c0,3.5,1.8,5.3,5.4,5.3c3.6,0,5.4-1.8,5.4-5.3V35.9z"/>
	<path class="st5" d="M183.6,58.1h-5.4v14.8h-3.9v-37h9c2.9,0,5.2,0.7,6.7,2.2c1.5,1.5,2.3,3.5,2.3,6.1v5.4c0,4-1.6,6.5-4.7,7.7
		l5.9,15.5H189L183.6,58.1z M178.2,54.6h4.9c3.4,0,5.2-1.7,5.2-5v-5.2c0-3.3-1.7-5-5.2-5h-4.9V54.6z"/>
	<path class="st5" d="M199.4,35.9h16v3.5h-12.1v13.1h10.6V56h-10.6v13.4h12.1v3.5h-16V35.9z"/>
	<path class="st5" d="M221.3,35.9h9.7c2.9,0,5.2,0.8,6.7,2.3c1.5,1.5,2.3,3.5,2.3,6v20.2c0,2.6-0.7,4.7-2.2,6.2
		c-1.5,1.5-3.7,2.3-6.6,2.3h-9.8V35.9z M235.9,44.3c0-3.3-1.7-5-5.2-5h-5.6v30.1h5.6c3.5,0,5.2-1.7,5.2-5.1V44.3z"/>
	<path class="st5" d="M257.2,35.9h9c2.9,0,5.1,0.8,6.6,2.3c1.5,1.5,2.3,3.5,2.3,6v7.6c0,2.6-0.8,4.6-2.3,6.1
		c-1.5,1.5-3.7,2.2-6.7,2.2h-5.1v12.7h-3.9V35.9z M271.2,44.5c0-3.4-1.7-5.1-5.2-5.1h-4.8v17.3h4.8c3.5,0,5.2-1.7,5.2-5V44.5z"/>
	<path class="st5" d="M290.7,58.1h-5.4v14.8h-3.9v-37h9c2.9,0,5.2,0.7,6.7,2.2c1.5,1.5,2.3,3.5,2.3,6.1v5.4c0,4-1.6,6.5-4.7,7.7
		l5.9,15.5h-4.3L290.7,58.1z M285.3,54.6h4.9c3.4,0,5.2-1.7,5.2-5v-5.2c0-3.3-1.7-5-5.2-5h-4.9V54.6z"/>
	<path class="st5" d="M306,44.1c0-2.6,0.8-4.7,2.4-6.3c1.6-1.6,3.9-2.4,7-2.4c3.1,0,5.4,0.8,7,2.4c1.6,1.6,2.4,3.7,2.4,6.3v20.6
		c0,2.6-0.8,4.7-2.4,6.3c-1.6,1.6-3.9,2.4-7,2.4s-5.4-0.8-7-2.4c-1.6-1.6-2.3-3.7-2.3-6.3V44.1z M320.7,44.2c0-3.5-1.8-5.2-5.4-5.2
		c-3.6,0-5.4,1.7-5.4,5.2v20.5c0,3.5,1.8,5.3,5.4,5.3c3.6,0,5.4-1.8,5.4-5.3V44.2z"/>
	<path class="st5" d="M331.6,35.9h9.7c2.9,0,5.2,0.8,6.7,2.3c1.5,1.5,2.3,3.5,2.3,6v20.2c0,2.6-0.7,4.7-2.2,6.2
		c-1.5,1.5-3.7,2.3-6.6,2.3h-9.8V35.9z M346.3,44.3c0-3.3-1.7-5-5.2-5h-5.6v30.1h5.6c3.5,0,5.2-1.7,5.2-5.1V44.3z"/>
	<path class="st5" d="M371.6,35.9h3.9v28.8c0,2.6-0.8,4.7-2.3,6.3c-1.6,1.6-3.9,2.4-7,2.4s-5.4-0.8-7-2.4c-1.6-1.6-2.3-3.7-2.3-6.3
		V35.9h3.9v28.7c0,3.5,1.8,5.3,5.4,5.3c3.6,0,5.4-1.8,5.4-5.3V35.9z"/>
	<path class="st5" d="M382.3,43.5c0-5.2,3.3-7.8,9.9-7.8c2.1,0,4.3,0.3,6.4,0.9v3.6c-2.2-0.6-4.3-0.9-6.5-0.9
		c-2.2,0-3.7,0.4-4.6,1.1c-0.9,0.8-1.3,1.9-1.3,3.3v21.5c0,1.4,0.4,2.5,1.3,3.3c0.9,0.8,2.5,1.1,4.7,1.1s4.4-0.3,6.4-0.9v3.6
		c-1.8,0.6-4,0.9-6.5,0.9c-6.6,0-9.9-2.6-9.9-7.8V43.5z"/>
	<path class="st5" d="M419.5,35.9v3.5h-7.1v33.5h-4V39.4h-7.1v-3.5H419.5z"/>
	<path class="st5" d="M421.5,43.4c0-2.4,0.8-4.3,2.4-5.7c1.6-1.4,3.9-2.1,6.8-2.1s5.4,0.3,7.4,0.9v3.7c-1.9-0.7-4.2-1-7-1
		c-3.8,0-5.7,1.4-5.7,4.3v2.6c0,1.3,0.2,2.3,0.7,3c0.5,0.7,1.3,1.4,2.5,2.1l6.4,3.6c3,1.6,4.5,4.1,4.5,7.3v3c0,2.5-0.9,4.5-2.6,5.9
		c-1.7,1.4-4.2,2.1-7.5,2.1s-5.8-0.4-7.7-1.1v-3.7c2.2,0.8,4.6,1.2,7.4,1.2c4.3,0,6.5-1.5,6.5-4.6v-2.3c0-1.2-0.2-2.2-0.7-2.9
		c-0.4-0.7-1.2-1.4-2.4-2l-6.3-3.5c-3.2-1.7-4.8-4.3-4.8-7.7V43.4z"/>
</g>
<g>
	<g id="Group_52_1_">
		<g id="Group_49_1_">
			<rect id="Rectangle_32_1_" x="530" y="56.7" class="st6" width="44.6" height="17.7"/>
			<rect id="Rectangle_33_1_" x="587.2" y="56.7" class="st6" width="18.7" height="17.7"/>
			<rect id="Rectangle_34_1_" x="700.2" y="56.7" class="st6" width="44.6" height="17.7"/>
			<rect id="Rectangle_35_1_" x="748.2" y="56.7" class="st6" width="7.4" height="17.7"/>
			<rect id="Rectangle_36_1_" x="872.5" y="56.7" class="st6" width="18.7" height="17.7"/>
		</g>
		<g id="Group_50_1_">
			<rect id="Rectangle_37_1_" x="527.1" y="53.8" class="st7" width="44.6" height="17.7"/>
			<rect id="Rectangle_38_1_" x="584.3" y="53.8" class="st7" width="18.7" height="17.7"/>
			<rect id="Rectangle_39_1_" x="697.4" y="53.8" class="st7" width="44.6" height="17.7"/>
			<rect id="Rectangle_40_1_" x="745.3" y="53.8" class="st7" width="7.4" height="17.7"/>
			<rect id="Rectangle_41_1_" x="869.5" y="53.8" class="st7" width="18.7" height="17.7"/>
		</g>
		<g id="Group_51_1_">
			<rect id="Rectangle_42_1_" x="528.6" y="55.2" width="44.6" height="17.7"/>
			<rect id="Rectangle_43_1_" x="585.8" y="55.2" width="18.7" height="17.7"/>
			<rect id="Rectangle_44_1_" x="698.9" y="55.2" width="44.6" height="17.7"/>
			<rect id="Rectangle_45_1_" x="746.8" y="55.2" width="7.4" height="17.7"/>
			<rect id="Rectangle_46_1_" x="871.1" y="55.2" width="18.7" height="17.7"/>
		</g>
	</g>
	<rect id="Rectangle_47_1_" x="915.1" y="56.6" class="st6" width="44.6" height="17.7"/>
	<rect id="Rectangle_48_1_" x="963.2" y="56.6" class="st6" width="7.4" height="17.7"/>
	<rect id="Rectangle_49_1_" x="1089.2" y="56.6" class="st6" width="18.7" height="17.7"/>
	<rect id="Rectangle_50_1_" x="912.3" y="53.7" class="st7" width="44.6" height="17.7"/>
	<rect id="Rectangle_51_1_" x="960.2" y="53.7" class="st7" width="7.4" height="17.7"/>
	<rect id="Rectangle_52_1_" x="1086.2" y="53.7" class="st7" width="18.7" height="17.7"/>
	<rect id="Rectangle_53_1_" x="913.7" y="55.2" width="44.6" height="17.7"/>
	<rect id="Rectangle_54_1_" x="961.7" y="55.2" width="7.4" height="17.7"/>
	<rect id="Rectangle_55_1_" x="1087.8" y="55.2" width="18.7" height="17.7"/>
</g>
</svg>
