<svg id="Layer_2" data-name="Layer 2" xmlns="http://www.w3.org/2000/svg" viewBox="0 0 1161.5 472.02"><g id="Group_48" data-name="Group 48"><path d="M34.36,469.18H1127.61l32.32-45.72.2-.3V95.09l-32.62-46H500.26L468.45,4h-434L2.05,50l-.63,68.12" style="fill:#fff;stroke:#000;stroke-miterlimit:10;stroke-width:3px"/></g><polygon points="1160.83 94.57 1160.83 118.64 1.89 118.64 1.89 49.45 35.46 2.61 468.64 3.43 500.47 48.55 1128.19 48.55 1160.83 94.57" style="fill:#0d102b"/><rect x="1.42" y="118.09" width="1157.27" height="5.38" style="fill:#bcc532"/><rect x="105.32" y="20.84" width="287.96" height="56.15" style="fill:none"/><path d="M127.4,70.13,127,56.84V36.57h4.27V77h-4.93L118,56.06l-4.76-12.58.36,13.24V77h-4.15V36.57h4.94Q124,60.87,127.4,70.13Z" style="fill:#bcc532"/><path d="M139.55,36.57h17.51v3.79H143.83V54.73h11.55v3.79H143.83V73.2h13.23V77H139.55Z" style="fill:#bcc532"/><path d="M190.57,36.57h4.09L188,77h-5.11q-4-23.34-4.42-26.74c-.3-2.26-.58-4.6-.82-7q-.6,6.56-1.8,13.54L172.4,77h-5.23l-6.62-40.42h4.09l4,24.12,1.44,10.71q.66-5.41,1.51-10.77l3.85-24.06h4.39l3.85,24.12,1.5,10.59q.78-6.32,1.45-10.59Z" style="fill:#bcc532"/><path d="M228.35,77l-2.47-11.31H215.05L212.59,77h-4.28l9.15-40.42h6L232.62,77ZM215.83,62H225l-4.63-21.23Z" style="fill:#bcc532"/><path d="M248,60.75h-6V77h-4.27V36.57h9.81c3.21,0,5.63.81,7.28,2.43a8.94,8.94,0,0,1,2.46,6.65v6q0,6.49-5.17,8.42l6.44,17h-4.69Zm-6-3.73h5.36c3.77,0,5.65-1.83,5.65-5.47V45.83q0-5.47-5.65-5.47h-5.36Z" style="fill:#bcc532"/><path d="M275.51,60.75h-5.95V77h-4.28V36.57h9.81c3.21,0,5.63.81,7.28,2.43a9,9,0,0,1,2.47,6.65v6q0,6.49-5.18,8.42l6.44,17h-4.69ZM269.56,57h5.35c3.77,0,5.65-1.83,5.65-5.47V45.83q0-5.47-5.65-5.47h-5.35Z" style="fill:#bcc532"/><path d="M292.78,36.57h4.27V77h-4.27Z" style="fill:#bcc532"/><path d="M321.23,36.57h4.45L316.84,77h-6L302,36.57h4.39l4.27,20.09q2.3,12.09,3.19,16.18.48-2.4,1.63-8.3Q316.72,58.11,321.23,36.57Z" style="fill:#bcc532"/><path d="M347.46,77,345,65.68H334.17L331.7,77h-4.27l9.14-40.42h6L351.73,77ZM335,62h9.2l-4.63-21.23Z" style="fill:#bcc532"/><path d="M356.9,36.57h4.28V73.26h12.27V77H356.9Z" style="fill:#bcc532"/><path d="M375.43,44.75a7.76,7.76,0,0,1,2.65-6.23c1.77-1.5,4.24-2.26,7.43-2.26a27.69,27.69,0,0,1,8.09,1v4.09A22.39,22.39,0,0,0,386,40.23q-6.19,0-6.19,4.7v2.89a5.84,5.84,0,0,0,.81,3.3,7.79,7.79,0,0,0,2.73,2.29l7,3.91a8.58,8.58,0,0,1,4.88,8v3.25A7.84,7.84,0,0,1,392.34,75c-1.89,1.52-4.6,2.28-8.15,2.28a24.27,24.27,0,0,1-8.46-1.2V72a23.07,23.07,0,0,0,8.07,1.32q7.09,0,7.09-5V65.8a5.87,5.87,0,0,0-.72-3.13,6.88,6.88,0,0,0-2.58-2.16l-6.92-3.79q-5.24-2.84-5.24-8.42Z" style="fill:#bcc532"/><rect id="Rectangle_135" data-name="Rectangle 135" x="878.88" y="68.72" width="13.61" height="28.7" style="fill:#e3203d"/><rect id="Rectangle_136" data-name="Rectangle 136" x="857.4" y="68.72" width="6.8" height="28.7" style="fill:#e3203d"/><rect id="Rectangle_137" data-name="Rectangle 137" x="829.1" y="68.72" width="13.61" height="28.7" style="fill:#e3203d"/><rect id="Rectangle_138" data-name="Rectangle 138" x="881.11" y="67.2" width="13.61" height="28.7" style="fill:#26dde1"/><rect id="Rectangle_139" data-name="Rectangle 139" x="859.62" y="67.2" width="6.8" height="28.7" style="fill:#26dde1"/><rect id="Rectangle_140" data-name="Rectangle 140" x="831.33" y="67.2" width="13.61" height="28.7" style="fill:#26dde1"/><rect id="Rectangle_141" data-name="Rectangle 141" x="879.78" y="67.81" width="13.61" height="28.7" style="fill:#fff"/><rect id="Rectangle_142" data-name="Rectangle 142" x="858.29" y="67.81" width="6.8" height="28.7" style="fill:#fff"/><rect id="Rectangle_143" data-name="Rectangle 143" x="830" y="67.81" width="13.61" height="28.7" style="fill:#fff"/><g style="isolation:isolate"><path d="M914.75,73h7.47q3,0,4.34,1.81a4.16,4.16,0,0,1,.75,2.46,3.86,3.86,0,0,1-.92,2.68A4.46,4.46,0,0,1,925,81a6.06,6.06,0,0,1,2,1.14,4.17,4.17,0,0,1,1.16,3.12,4.8,4.8,0,0,1-1,3,6,6,0,0,1-5,2h-7.35Zm6.59,7.29a5.26,5.26,0,0,0,2.33-.41A2.36,2.36,0,0,0,925,77.55a2.25,2.25,0,0,0-1.39-2.28,6.33,6.33,0,0,0-2.33-.33h-4.21v5.34Zm.79,8a3.61,3.61,0,0,0,3.1-1.24,3.12,3.12,0,0,0,.58-1.91,2.52,2.52,0,0,0-1.7-2.56,6.51,6.51,0,0,0-2.38-.36h-4.68v6.07Z" style="fill:#e3203d"/><path d="M935.88,73h2.64l6.27,17.26h-2.56l-1.76-5.17h-6.82l-1.87,5.17h-2.4Zm3.84,10.18-2.62-7.62-2.78,7.62Z" style="fill:#e3203d"/><path d="M957.69,73V75h-5.82V90.25h-2.36V75h-5.82V73Z" style="fill:#e3203d"/><path d="M972.39,73V75h-5.82V90.25h-2.36V75h-5.82V73Z" style="fill:#e3203d"/><path d="M974.54,73h2.34v15.2h8.66v2.06h-11Z" style="fill:#e3203d"/><path d="M988.14,73h12.53V75.1H990.42v5.24h9.47v2h-9.47v5.85h10.43v2.06H988.14Z" style="fill:#e3203d"/><path d="M1016.52,73V75h-5.82V90.25h-2.36V75h-5.81V73Z" style="fill:#e3203d"/><path d="M1018.89,73h12.53V75.1h-10.25v5.24h9.47v2h-9.47v5.85h10.42v2.06h-12.7Z" style="fill:#e3203d"/><path d="M1046.93,74.24a6.14,6.14,0,0,1,2,3.93h-2.28a4.34,4.34,0,0,0-4.7-3.62,5.1,5.1,0,0,0-4,1.79q-1.55,1.8-1.54,5.5a8.15,8.15,0,0,0,1.39,4.92,4.82,4.82,0,0,0,4.15,1.89,4.37,4.37,0,0,0,3.87-2,7.54,7.54,0,0,0,1-2.74h2.28a7.85,7.85,0,0,1-2,4.57,7.06,7.06,0,0,1-5.48,2.22,7.15,7.15,0,0,1-5-1.83q-2.67-2.4-2.67-7.44a9.57,9.57,0,0,1,2-6.26,7.24,7.24,0,0,1,6-2.66A6.94,6.94,0,0,1,1046.93,74.24Z" style="fill:#e3203d"/><path d="M1052.16,73h2.36v7.13h8.87V73h2.36V90.25h-2.36V82.18h-8.87v8.07h-2.36Z" style="fill:#e3203d"/></g><g style="isolation:isolate"><path d="M915.67,71.8h7.46c2,0,3.48.6,4.34,1.81a4.1,4.1,0,0,1,.76,2.46,3.87,3.87,0,0,1-.93,2.68,4.35,4.35,0,0,1-1.39,1,6,6,0,0,1,2,1.14A4.13,4.13,0,0,1,929.06,84a4.8,4.8,0,0,1-1,3c-1,1.34-2.71,2-5,2h-7.34Zm6.59,7.29a5.24,5.24,0,0,0,2.32-.41,2.34,2.34,0,0,0,1.31-2.32,2.23,2.23,0,0,0-1.39-2.28,6.29,6.29,0,0,0-2.33-.33H918v5.34Zm.79,8a3.58,3.58,0,0,0,3.09-1.24,3.12,3.12,0,0,0,.59-1.91,2.53,2.53,0,0,0-1.7-2.56,6.57,6.57,0,0,0-2.39-.36H918v6.07Z" style="fill:#26dde1"/><path d="M936.79,71.8h2.65l6.26,17.26h-2.56l-1.75-5.17h-6.83l-1.87,5.17H930.3ZM940.64,82,938,74.36,935.23,82Z" style="fill:#26dde1"/><path d="M958.6,71.8v2h-5.81V89.06h-2.37V73.85h-5.81v-2Z" style="fill:#26dde1"/><path d="M973.3,71.8v2h-5.81V89.06h-2.37V73.85h-5.81v-2Z" style="fill:#26dde1"/><path d="M975.45,71.8h2.34V87h8.66v2.06h-11Z" style="fill:#26dde1"/><path d="M989.06,71.8h12.52v2.11H991.34v5.24h9.47v2h-9.47V87h10.42v2.06h-12.7Z" style="fill:#26dde1"/><path d="M1017.43,71.8v2h-5.81V89.06h-2.36V73.85h-5.82v-2Z" style="fill:#26dde1"/><path d="M1019.81,71.8h12.52v2.11h-10.24v5.24h9.47v2h-9.47V87h10.42v2.06h-12.7Z" style="fill:#26dde1"/><path d="M1047.84,73.05a6.11,6.11,0,0,1,2,3.93h-2.28a4.36,4.36,0,0,0-4.71-3.62,5.07,5.07,0,0,0-4,1.79q-1.54,1.8-1.54,5.5a8.08,8.08,0,0,0,1.39,4.92,4.81,4.81,0,0,0,4.15,1.89,4.34,4.34,0,0,0,3.86-2,7.53,7.53,0,0,0,1-2.75H1050a7.84,7.84,0,0,1-2,4.58,7.09,7.09,0,0,1-5.49,2.22,7.16,7.16,0,0,1-5-1.83q-2.65-2.4-2.66-7.44a9.57,9.57,0,0,1,2-6.26,7.22,7.22,0,0,1,6-2.66A6.94,6.94,0,0,1,1047.84,73.05Z" style="fill:#26dde1"/><path d="M1053.07,71.8h2.36v7.13h8.87V71.8h2.37V89.06h-2.37V81h-8.87v8.07h-2.36Z" style="fill:#26dde1"/></g><g style="isolation:isolate"><path d="M915.35,72.23h7.46c2,0,3.48.6,4.34,1.81a4.13,4.13,0,0,1,.76,2.47,3.89,3.89,0,0,1-.93,2.68,4.74,4.74,0,0,1-1.38,1,5.67,5.67,0,0,1,2,1.14,4.12,4.12,0,0,1,1.17,3.11,4.81,4.81,0,0,1-1.06,3c-1.05,1.35-2.71,2-5,2h-7.34Zm6.59,7.3a5.44,5.44,0,0,0,2.33-.41,2.38,2.38,0,0,0,1.3-2.33,2.23,2.23,0,0,0-1.39-2.28,6.27,6.27,0,0,0-2.32-.33h-4.22v5.35Zm.79,8a3.61,3.61,0,0,0,3.1-1.24,3.18,3.18,0,0,0,.58-1.91,2.54,2.54,0,0,0-1.7-2.56,6.55,6.55,0,0,0-2.38-.36h-4.69v6.07Z" style="fill:#fff"/><path d="M936.48,72.23h2.64l6.26,17.26h-2.56l-1.75-5.17h-6.83l-1.86,5.17H930Zm3.84,10.19-2.62-7.63-2.79,7.63Z" style="fill:#fff"/><path d="M958.28,72.23v2.06h-5.81v15.2h-2.36V74.29h-5.82V72.23Z" style="fill:#fff"/><path d="M973,72.23v2.06h-5.81v15.2h-2.36V74.29H959V72.23Z" style="fill:#fff"/><path d="M975.13,72.23h2.34v15.2h8.66v2.06h-11Z" style="fill:#fff"/><path d="M988.74,72.23h12.53v2.12H991v5.24h9.47v2H991v5.85h10.42v2.06h-12.7Z" style="fill:#fff"/><path d="M1017.12,72.23v2.06h-5.82v15.2h-2.36V74.29h-5.82V72.23Z" style="fill:#fff"/><path d="M1019.49,72.23H1032v2.12h-10.24v5.24h9.47v2h-9.47v5.85h10.42v2.06h-12.7Z" style="fill:#fff"/><path d="M1047.52,73.49a6.08,6.08,0,0,1,2,3.92h-2.28a4.36,4.36,0,0,0-4.71-3.62,5.06,5.06,0,0,0-4,1.8q-1.55,1.78-1.54,5.49a8.09,8.09,0,0,0,1.39,4.93,4.84,4.84,0,0,0,4.15,1.88,4.35,4.35,0,0,0,3.86-2,7.86,7.86,0,0,0,1.06-2.75h2.27a7.81,7.81,0,0,1-2,4.57A7.08,7.08,0,0,1,1042.2,90a7.21,7.21,0,0,1-5-1.82q-2.65-2.41-2.66-7.45a9.59,9.59,0,0,1,2-6.26,7.26,7.26,0,0,1,6-2.66A6.92,6.92,0,0,1,1047.52,73.49Z" style="fill:#fff"/><path d="M1052.75,72.23h2.37v7.13H1064V72.23h2.36V89.49H1064V81.42h-8.87v8.07h-2.37Z" style="fill:#fff"/></g><path d="M1.42,118V423.55l32.29,45.72H1126.1" style="fill:#fff;stroke:#000;stroke-miterlimit:10;stroke-width:3px"/><rect x="2.93" y="118.25" width="17.98" height="5.22" style="fill:#bcc532"/></svg>