<?xml version="1.0" encoding="utf-8"?>
<!-- Generator: Adobe Illustrator 25.1.0, SVG Export Plug-In . SVG Version: 6.00 Build 0)  -->
<svg version="1.1" id="Layer_2_1_" xmlns="http://www.w3.org/2000/svg" xmlns:xlink="http://www.w3.org/1999/xlink" x="0px" y="0px"
	 viewBox="0 0 1161.5 508.9" style="enable-background:new 0 0 1161.5 508.9;" xml:space="preserve">
<style type="text/css">
	.st0{fill:#BCC532;}
	.st1{fill:#FFFFFF;stroke:#000000;stroke-width:3;stroke-miterlimit:10;}
	.st2{clip-path:url(#SVGID_2_);fill:url(#SVGID_3_);}
	.st3{fill:#0B0B31;}
	.st4{fill:none;}
	.st5{enable-background:new    ;}
	.st6{fill:#FFFFFF;}
	.st7{fill:#D73148;}
	.st8{fill:#67DFE4;}
</style>
<g>
	<g id="Group_48_1_">
		<g>
			<path class="st0" d="M0.7,99.8V427l0.2,0.3l32.2,45.6h632.2l25.4,36h432.1l32-45.3V54.8l-32.3-45.9H690l-31.8,45H33.1L0.7,99.8z
				 M1.9,426.6V100.2l31.8-45h625.1l31.8-45h431.1l31.7,45v408l-5.9,8.4l-25.4,36H691.5l-25.4-36H33.9l-31.8-45H1.9z"/>
			<polygon class="st0" points="33.8,55.2 658.9,55.2 690.7,10.2 1121.8,10.2 1153.4,55.2 1153.4,463.2 1147.5,471.6 1122.1,507.5 
				691.5,507.5 666.1,471.6 33.8,471.6 2.1,426.6 2.1,100.2 			"/>
		</g>
	</g>
</g>
<g>
	<g id="Group_48">
		<g>
			<path class="st1" d="M6.5,92.9v327.2l0.2,0.3L38.9,466h632.2l25.4,36h432.1l32-45.3V47.9L1128.3,2H695.8l-31.7,45H39L6.5,92.9z"
				/>
		</g>
	</g>
</g>
<g>
	<g>
		<g>
			<defs>
				<polygon id="SVGID_1_" points="7.4,90.9 7.4,418.1 7.6,418.4 39.8,464 672,464 697.4,500 1129.5,500 1161.5,454.7 1161.5,45.9 
					1129.2,0 696.7,0 664.9,45 39.9,45 				"/>
			</defs>
			<clipPath id="SVGID_2_">
				<use xlink:href="#SVGID_1_"  style="overflow:visible;"/>
			</clipPath>
			
				<radialGradient id="SVGID_3_" cx="1062.6998" cy="212.9" r="264.6297" gradientTransform="matrix(-1 0 0 1 1228.1998 52)" gradientUnits="userSpaceOnUse">
				<stop  offset="0" style="stop-color:#EB0A42"/>
				<stop  offset="9.565368e-02" style="stop-color:#EB1047;stop-opacity:0.9043"/>
				<stop  offset="0.2239" style="stop-color:#ED2154;stop-opacity:0.7761"/>
				<stop  offset="0.3707" style="stop-color:#EF3D69;stop-opacity:0.6293"/>
				<stop  offset="0.5312" style="stop-color:#F26488;stop-opacity:0.4688"/>
				<stop  offset="0.7029" style="stop-color:#F696AE;stop-opacity:0.2971"/>
				<stop  offset="0.8812" style="stop-color:#FBD3DD;stop-opacity:0.1188"/>
				<stop  offset="1" style="stop-color:#FFFFFF;stop-opacity:0"/>
			</radialGradient>
			<ellipse class="st2" cx="165.5" cy="264.9" rx="274.2" ry="254.7"/>
		</g>
	</g>
</g>
<polygon class="st3" points="670.4,54.3 700.4,10.2 1122.1,10.2 1153.4,54.8 1122.1,98.4 700.4,98.4 "/>
<rect x="768.3" y="21.3" class="st4" width="287.2" height="56"/>
<g class="st5">
	<path class="st6" d="M821.2,44.3v3.1c0,3.5-1.4,5.8-4.1,6.8c2.9,1,4.4,3.3,4.4,7v3.3c0,2.6-0.7,4.6-2.2,6.1
		c-1.5,1.5-3.7,2.2-6.6,2.2h-9.8v-37h9.5c2.9,0,5.1,0.7,6.6,2.2C820.4,39.7,821.2,41.7,821.2,44.3z M812,39.4h-5.3v13.3h5.3
		c3.5,0,5.3-1.7,5.3-5.1v-3.1C817.3,41,815.5,39.4,812,39.4z M817.6,64.4v-3.3c0-3.4-1.8-5.1-5.3-5.1h-5.6v13.4h5.6
		C815.8,69.5,817.6,67.8,817.6,64.4z"/>
	<path class="st6" d="M844,72.9l-2.3-10.3h-9.9l-2.3,10.3h-3.9l8.4-37h5.5l8.4,37H844z M832.6,59.1h8.4l-4.2-19.4L832.6,59.1z"/>
	<path class="st6" d="M867.6,35.9v3.5h-7.1v33.5h-4V39.4h-7.2v-3.5H867.6z"/>
	<path class="st6" d="M886.8,35.9v3.5h-7.2v33.5h-4V39.4h-7.1v-3.5H886.8z"/>
	<path class="st6" d="M891.1,35.9h3.9v33.5h11.2v3.4h-15.1V35.9z"/>
	<path class="st6" d="M910.3,35.9h16v3.5h-12.1v13.1h10.6V56h-10.6v13.4h12.1v3.5h-16V35.9z"/>
	<path class="st6" d="M947.1,35.9v3.5H940v33.5h-4V39.4h-7.2v-3.5H947.1z"/>
	<path class="st6" d="M951.4,35.9h16v3.5h-12.1v13.1h10.6V56h-10.6v13.4h12.1v3.5h-16V35.9z"/>
	<path class="st6" d="M972.7,43.5c0-5.2,3.3-7.8,9.9-7.8c2.1,0,4.3,0.3,6.4,0.9v3.6c-2.2-0.6-4.3-0.9-6.5-0.9
		c-2.2,0-3.7,0.4-4.6,1.1c-0.9,0.8-1.3,1.9-1.3,3.3v21.5c0,1.4,0.4,2.5,1.3,3.3c0.9,0.8,2.5,1.1,4.7,1.1s4.4-0.3,6.4-0.9v3.6
		c-1.8,0.6-4,0.9-6.5,0.9c-6.6,0-9.9-2.6-9.9-7.8V43.5z"/>
	<path class="st6" d="M1010.6,35.9h4v37h-4V56.5h-11.8v16.4h-3.9v-37h3.9V53h11.8V35.9z"/>
</g>
<g>
	<g id="Group_52_1_">
		<g id="Group_49_1_">
			<rect id="Rectangle_32_1_" x="587.6" y="56.7" class="st7" width="44.6" height="17.7"/>
			<rect id="Rectangle_33_1_" x="556.3" y="56.7" class="st7" width="18.7" height="17.7"/>
			<rect id="Rectangle_34_1_" x="417.4" y="56.7" class="st7" width="44.6" height="17.7"/>
			<rect id="Rectangle_35_1_" x="406.6" y="56.7" class="st7" width="7.4" height="17.7"/>
			<rect id="Rectangle_36_1_" x="271" y="56.7" class="st7" width="18.7" height="17.7"/>
		</g>
		<g id="Group_50_1_">
			<rect id="Rectangle_37_1_" x="590.5" y="53.8" class="st8" width="44.6" height="17.7"/>
			<rect id="Rectangle_38_1_" x="559.2" y="53.8" class="st8" width="18.7" height="17.7"/>
			<rect id="Rectangle_39_1_" x="420.2" y="53.8" class="st8" width="44.6" height="17.7"/>
			<rect id="Rectangle_40_1_" x="409.5" y="53.8" class="st8" width="7.4" height="17.7"/>
			<rect id="Rectangle_41_1_" x="274" y="53.8" class="st8" width="18.7" height="17.7"/>
		</g>
		<g id="Group_51_1_">
			<rect id="Rectangle_42_1_" x="589" y="55.2" width="44.6" height="17.7"/>
			<rect id="Rectangle_43_1_" x="557.7" y="55.2" width="18.7" height="17.7"/>
			<rect id="Rectangle_44_1_" x="418.7" y="55.2" width="44.6" height="17.7"/>
			<rect id="Rectangle_45_1_" x="408" y="55.2" width="7.4" height="17.7"/>
			<rect id="Rectangle_46_1_" x="272.4" y="55.2" width="18.7" height="17.7"/>
		</g>
	</g>
	<rect id="Rectangle_47_1_" x="202.5" y="56.6" class="st7" width="44.6" height="17.7"/>
	<rect id="Rectangle_48_1_" x="191.6" y="56.6" class="st7" width="7.4" height="17.7"/>
	<rect id="Rectangle_49_1_" x="54.3" y="56.6" class="st7" width="18.7" height="17.7"/>
	<rect id="Rectangle_50_1_" x="205.3" y="53.7" class="st8" width="44.6" height="17.7"/>
	<rect id="Rectangle_51_1_" x="194.6" y="53.7" class="st8" width="7.4" height="17.7"/>
	<rect id="Rectangle_52_1_" x="57.3" y="53.7" class="st8" width="18.7" height="17.7"/>
	<rect id="Rectangle_53_1_" x="203.9" y="55.2" width="44.6" height="17.7"/>
	<rect id="Rectangle_54_1_" x="193.1" y="55.2" width="7.4" height="17.7"/>
	<rect id="Rectangle_55_1_" x="55.7" y="55.2" width="18.7" height="17.7"/>
</g>
</svg>
